<svg width="200" height="201" viewBox="0 0 200 201" fill="none" xmlns="http://www.w3.org/2000/svg">
<g clip-path="url(#clip0_230_4631)">
<path d="M190 0.289551H10C4.47715 0.289551 0 4.7667 0 10.2896V190.29C0 195.812 4.47715 200.29 10 200.29H190C195.523 200.29 200 195.812 200 190.29V10.2896C200 4.7667 195.523 0.289551 190 0.289551Z" fill="#F5F5F5"/>
<path d="M108.486 80.0084C108.644 79.0993 109.434 78.4121 110.356 78.4377C112.124 78.4804 114.933 79.9614 114.527 84.4984C114.254 87.5458 110.907 95.6508 113.887 98.7921C116.867 101.933 122.977 97.93 125.645 95.0362C129.121 91.2633 141.093 75.4757 129.812 59.8801C129.151 58.9668 129.168 57.7205 129.868 56.8327C130.799 55.6547 132.528 55.5182 133.612 56.5425C137.019 59.7777 142.971 67.934 140.158 83.8752C136.712 103.419 111.547 119.287 104.562 122.966C103.529 123.513 102.261 123.325 101.433 122.501C99.1696 120.243 95.4039 114.742 98.1833 104.742C101.821 91.6389 107.009 88.5915 108.482 80.0041L108.486 80.0084Z" fill="#00793D"/>
<path d="M95.1131 106.633C95.382 105.216 94.7672 103.782 93.5333 103.035C92.0432 102.138 90.4934 101.157 89.5498 100.461C86.0487 97.8916 82.9149 94.8826 80.8527 92.0486C77.8084 87.8659 75.2382 82.2149 76.2458 77.0079C76.5575 75.3988 77.2491 73.9136 78.197 72.5905C79.4095 70.896 81.0405 69.462 82.838 68.348V53.1238C69.6066 53.3073 58.9326 64.1397 58.9326 77.4859C58.9326 78.4548 59.0052 79.4066 59.1162 80.3498C59.4791 86.0776 61.2937 92.5095 65.9262 98.9671C69.5041 103.957 75.3022 109.1 81.3693 113.619C86.924 117.759 93.0082 121.246 98.6867 123.278C96.2573 120.384 93.512 115.058 95.1216 106.628L95.1131 106.633Z" fill="#003823"/>
<path d="M96.0696 56.9736C92.2654 54.4639 87.7225 53 82.8296 53C69.4445 53 58.5869 63.9135 58.5869 77.3707C58.5869 78.3395 58.6595 79.2913 58.7705 80.2346C59.0011 83.9051 59.9831 87.8061 61.8745 91.8309C60.7388 80.6699 70.1063 71.2972 81.1559 71.2972C88.5722 71.2972 97.5383 76.0391 100.284 87.5927C100.407 87.3366 101.539 85.1044 102.457 82.0528C104.626 75.0275 105.719 64.2677 96.0739 56.9693L96.0696 56.9736Z" fill="#00793D"/>
<path d="M128.339 61.1861C126.098 57.3833 123.322 55.0316 121.303 53.9517C119.779 53.1365 118.532 53.2774 117.759 54.6176L117.729 54.6688C117.17 55.6462 117.973 57.076 118.797 57.8698C123.301 62.2105 125.564 67.059 127.203 71.9971C127.331 72.3898 127.233 72.8209 126.947 73.1196C126.358 73.7513 125.312 73.5251 125.026 72.7142C123.933 69.5857 122.272 67.0889 120.308 64.5451C117.43 60.8148 114.326 58.4161 112.042 57.4345C110.543 56.79 109.058 57.0119 108.46 58.5228L108.439 58.5826C107.999 59.6923 108.567 60.7892 109.536 61.519C115.56 66.0731 119.326 71.8136 121.708 77.631C121.819 77.9041 121.837 78.5657 121.627 78.7791C121.252 79.159 120.675 78.9968 120.406 78.5401C118.788 75.7786 117.9 74.622 116.265 72.5861C113.579 69.2528 112.157 68.3735 109.813 67.1571C108.814 66.6364 107.474 66.7986 106.761 67.7248C105.89 68.8686 106.321 70.2046 107.615 71.2075C118.493 79.637 120.632 89.0737 119.599 96.8885C119.612 96.7904 120.235 96.4788 120.317 96.4233C120.974 95.9709 121.597 95.4715 122.199 94.9508C124.215 93.2052 125.91 91.1138 127.383 88.8987C128.77 86.8116 130.038 84.5581 130.807 82.1381C131.639 79.5047 131.904 76.6835 131.844 73.9306C131.836 73.5763 131.823 73.2221 131.802 72.8678C131.571 68.779 130.41 64.7286 128.326 61.1947L128.339 61.1861Z" fill="#003823"/>
<path d="M161.592 146.908C160.276 146.908 159.106 146.633 158.08 146.082C157.071 145.531 156.268 144.782 155.671 143.833C155.09 142.869 154.799 141.775 154.799 140.551C154.799 139.312 155.09 138.218 155.671 137.27C156.268 136.306 157.071 135.556 158.08 135.021C159.106 134.47 160.276 134.195 161.592 134.195C162.892 134.195 164.055 134.47 165.08 135.021C166.105 135.556 166.908 136.298 167.489 137.247C168.071 138.195 168.361 139.297 168.361 140.551C168.361 141.775 168.071 142.869 167.489 143.833C166.908 144.782 166.105 145.531 165.08 146.082C164.055 146.633 162.892 146.908 161.592 146.908ZM161.592 143.971C162.188 143.971 162.724 143.833 163.198 143.558C163.672 143.282 164.047 142.892 164.322 142.387C164.598 141.867 164.736 141.255 164.736 140.551C164.736 139.832 164.598 139.22 164.322 138.716C164.047 138.211 163.672 137.821 163.198 137.545C162.724 137.27 162.188 137.132 161.592 137.132C160.995 137.132 160.459 137.27 159.985 137.545C159.511 137.821 159.128 138.211 158.838 138.716C158.562 139.22 158.425 139.832 158.425 140.551C158.425 141.255 158.562 141.867 158.838 142.387C159.128 142.892 159.511 143.282 159.985 143.558C160.459 143.833 160.995 143.971 161.592 143.971Z" fill="#00793D"/>
<path d="M148.282 146.908C146.951 146.908 145.765 146.64 144.725 146.105C143.685 145.554 142.866 144.797 142.27 143.833C141.688 142.869 141.397 141.775 141.397 140.551C141.397 139.312 141.688 138.218 142.27 137.27C142.866 136.306 143.685 135.556 144.725 135.021C145.765 134.47 146.951 134.195 148.282 134.195C149.582 134.195 150.715 134.47 151.678 135.021C152.642 135.556 153.354 136.329 153.813 137.339L151.036 138.83C150.715 138.249 150.309 137.821 149.82 137.545C149.345 137.27 148.825 137.132 148.259 137.132C147.647 137.132 147.096 137.27 146.607 137.545C146.117 137.821 145.727 138.211 145.436 138.716C145.161 139.22 145.023 139.832 145.023 140.551C145.023 141.271 145.161 141.882 145.436 142.387C145.727 142.892 146.117 143.282 146.607 143.558C147.096 143.833 147.647 143.971 148.259 143.971C148.825 143.971 149.345 143.841 149.82 143.581C150.309 143.305 150.715 142.869 151.036 142.273L153.813 143.787C153.354 144.782 152.642 145.554 151.678 146.105C150.715 146.64 149.582 146.908 148.282 146.908Z" fill="#00793D"/>
<path d="M135.413 146.725V134.378H138.993V146.725H135.413ZM137.203 132.657C136.545 132.657 136.009 132.466 135.596 132.083C135.183 131.701 134.977 131.227 134.977 130.661C134.977 130.095 135.183 129.62 135.596 129.238C136.009 128.855 136.545 128.664 137.203 128.664C137.86 128.664 138.396 128.848 138.809 129.215C139.222 129.567 139.429 130.026 139.429 130.592C139.429 131.188 139.222 131.686 138.809 132.083C138.411 132.466 137.876 132.657 137.203 132.657Z" fill="#00793D"/>
<path d="M124.825 146.908C123.662 146.908 122.614 146.648 121.681 146.128C120.747 145.592 120.005 144.85 119.455 143.902C118.919 142.953 118.651 141.837 118.651 140.551C118.651 139.251 118.919 138.127 119.455 137.178C120.005 136.229 120.747 135.495 121.681 134.975C122.614 134.455 123.662 134.195 124.825 134.195C125.865 134.195 126.775 134.424 127.555 134.883C128.336 135.342 128.94 136.038 129.368 136.971C129.797 137.905 130.011 139.098 130.011 140.551C130.011 141.99 129.804 143.183 129.391 144.131C128.978 145.065 128.382 145.761 127.601 146.22C126.836 146.679 125.911 146.908 124.825 146.908ZM125.444 143.971C126.026 143.971 126.553 143.833 127.028 143.558C127.502 143.282 127.877 142.892 128.152 142.387C128.443 141.867 128.588 141.255 128.588 140.551C128.588 139.832 128.443 139.22 128.152 138.716C127.877 138.211 127.502 137.821 127.028 137.545C126.553 137.27 126.026 137.132 125.444 137.132C124.847 137.132 124.312 137.27 123.838 137.545C123.363 137.821 122.981 138.211 122.69 138.716C122.415 139.22 122.277 139.832 122.277 140.551C122.277 141.255 122.415 141.867 122.69 142.387C122.981 142.892 123.363 143.282 123.838 143.558C124.312 143.833 124.847 143.971 125.444 143.971ZM128.68 146.725V144.2L128.749 140.529L128.519 136.88V129.697H132.099V146.725H128.68Z" fill="#00793D"/>
<path d="M111.173 146.908C109.766 146.908 108.526 146.633 107.455 146.082C106.4 145.531 105.581 144.782 105 143.833C104.419 142.869 104.128 141.775 104.128 140.551C104.128 139.312 104.411 138.218 104.977 137.27C105.558 136.306 106.346 135.556 107.341 135.021C108.335 134.47 109.46 134.195 110.714 134.195C111.923 134.195 113.009 134.455 113.973 134.975C114.952 135.48 115.725 136.214 116.291 137.178C116.857 138.127 117.14 139.266 117.14 140.597C117.14 140.735 117.132 140.896 117.117 141.079C117.102 141.248 117.086 141.408 117.071 141.561H107.042V139.473H115.189L113.812 140.092C113.812 139.45 113.682 138.892 113.422 138.417C113.162 137.943 112.803 137.576 112.344 137.316C111.885 137.04 111.349 136.903 110.737 136.903C110.125 136.903 109.582 137.04 109.108 137.316C108.649 137.576 108.289 137.951 108.029 138.44C107.769 138.914 107.639 139.481 107.639 140.138V140.689C107.639 141.362 107.784 141.959 108.075 142.479C108.381 142.984 108.802 143.374 109.337 143.65C109.888 143.91 110.531 144.04 111.265 144.04C111.923 144.04 112.497 143.94 112.986 143.741C113.491 143.542 113.95 143.244 114.363 142.846L116.268 144.912C115.702 145.554 114.99 146.051 114.134 146.403C113.277 146.74 112.29 146.908 111.173 146.908Z" fill="#00793D"/>
<path d="M83.3809 146.725V130.661H86.456L93.2946 141.997H91.6653L98.3892 130.661H101.441L101.487 146.725H97.9991L97.9762 136.008H98.6187L93.2487 145.026H91.5735L86.0888 136.008H86.869V146.725H83.3809Z" fill="#00793D"/>
<path d="M72.7635 146.725L67.5771 134.378H71.2719L75.5862 145.003H73.7503L78.2253 134.378H81.6676L76.4583 146.725H72.7635Z" fill="#00793D"/>
<path d="M62.5102 146.725V134.378H66.0902V146.725H62.5102ZM64.3002 132.657C63.6424 132.657 63.1069 132.466 62.6938 132.083C62.2808 131.701 62.0742 131.227 62.0742 130.661C62.0742 130.095 62.2808 129.62 62.6938 129.238C63.1069 128.855 63.6424 128.664 64.3002 128.664C64.9581 128.664 65.4936 128.848 65.9066 129.215C66.3197 129.567 66.5262 130.026 66.5262 130.592C66.5262 131.188 66.3197 131.686 65.9066 132.083C65.5089 132.466 64.9734 132.657 64.3002 132.657Z" fill="#00793D"/>
<path d="M54.1477 134.195C55.1269 134.195 55.9989 134.394 56.7639 134.791C57.5441 135.174 58.1561 135.771 58.5998 136.581C59.0434 137.377 59.2653 138.402 59.2653 139.656V146.725H55.6853V140.207C55.6853 139.213 55.4635 138.478 55.0198 138.004C54.5914 137.53 53.9795 137.293 53.1839 137.293C52.6178 137.293 52.1053 137.415 51.6463 137.66C51.2027 137.889 50.8508 138.249 50.5907 138.739C50.3459 139.228 50.2235 139.855 50.2235 140.62V146.725H46.6436V129.697H50.2235V137.798L49.4203 136.765C49.864 135.939 50.4989 135.304 51.3251 134.86C52.1512 134.417 53.0921 134.195 54.1477 134.195Z" fill="#00793D"/>
<path d="M37.5403 147C36.2552 147 35.0237 146.832 33.8456 146.495C32.6676 146.143 31.7191 145.692 31 145.141L32.2622 142.341C32.9506 142.831 33.7615 143.236 34.6947 143.558C35.6433 143.864 36.5995 144.017 37.5633 144.017C38.2977 144.017 38.8867 143.948 39.3303 143.81C39.7893 143.657 40.1259 143.451 40.3401 143.191C40.5543 142.93 40.6614 142.632 40.6614 142.296C40.6614 141.867 40.4931 141.531 40.1565 141.286C39.8199 141.026 39.3762 140.819 38.8255 140.666C38.2747 140.498 37.6627 140.345 36.9896 140.207C36.3317 140.054 35.6662 139.871 34.9931 139.656C34.3352 139.442 33.7309 139.167 33.1801 138.83C32.6293 138.494 32.178 138.05 31.8261 137.499C31.4896 136.949 31.3213 136.245 31.3213 135.388C31.3213 134.47 31.5661 133.636 32.0556 132.887C32.5605 132.122 33.3102 131.517 34.3046 131.074C35.3143 130.615 36.5765 130.385 38.0911 130.385C39.1009 130.385 40.0953 130.508 41.0744 130.752C42.0536 130.982 42.918 131.334 43.6676 131.808L42.5202 134.631C41.7705 134.202 41.0209 133.889 40.2712 133.69C39.5216 133.476 38.7872 133.369 38.0682 133.369C37.3491 133.369 36.7601 133.453 36.3011 133.621C35.8422 133.789 35.5132 134.011 35.3143 134.287C35.1154 134.547 35.016 134.853 35.016 135.204C35.016 135.618 35.1843 135.954 35.5209 136.214C35.8575 136.459 36.3011 136.658 36.8519 136.811C37.4027 136.964 38.007 137.117 38.6648 137.27C39.338 137.423 40.0035 137.599 40.6614 137.798C41.3345 137.997 41.9465 138.264 42.4972 138.601C43.048 138.937 43.4917 139.381 43.8283 139.932C44.1801 140.483 44.3561 141.179 44.3561 142.02C44.3561 142.923 44.1036 143.749 43.5988 144.499C43.0939 145.248 42.3366 145.853 41.3269 146.312C40.3324 146.771 39.0703 147 37.5403 147Z" fill="#00793D"/>
</g>
<defs>
<clipPath id="clip0_230_4631">
<rect width="200" height="200" fill="white" transform="translate(0 0.289551)"/>
</clipPath>
</defs>
</svg>
