<svg width="200" height="201" viewBox="0 0 200 201" fill="none" xmlns="http://www.w3.org/2000/svg">
<g clip-path="url(#clip0_230_5329)">
<path d="M190 0.289551H10C4.47715 0.289551 0 4.7667 0 10.2896V190.29C0 195.812 4.47715 200.29 10 200.29H190C195.523 200.29 200 195.812 200 190.29V10.2896C200 4.7667 195.523 0.289551 190 0.289551Z" fill="#F5F5F5"/>
<path d="M88.1611 78C88.4633 78.4145 88.6952 78.8425 88.9704 79.2405C89.5073 80.0166 90.0635 80.7795 90.6206 81.5413C91.6498 82.9486 92.6922 84.3463 93.7161 85.7574C94.4574 86.7792 95.1712 87.8212 95.9095 88.8453C96.5758 89.7695 97.2445 90.6929 97.9415 91.5939C98.2158 91.9485 98.2196 92.1984 97.9331 92.559C96.9147 93.8411 95.9327 95.1521 94.9379 96.453C94.1473 97.4869 93.3501 98.5159 92.5709 99.5584C91.795 100.596 91.0519 101.659 90.2696 102.692C88.8092 104.62 87.3281 106.533 85.8609 108.456C85.0502 109.518 84.2477 110.588 83.4457 111.657C82.2752 113.218 81.1095 114.782 79.9397 116.344C78.6506 118.064 77.3614 119.785 76.0673 121.502C75.7177 121.966 75.356 122.421 74.9857 122.868C74.9239 122.943 74.7899 122.993 74.6888 122.994C73.461 123.002 72.2331 122.999 70.8525 122.999C78.7416 112.63 86.5644 102.349 94.4081 92.0392C93.6813 91.0402 92.9495 90.0382 92.2221 89.033C91.6047 88.1797 90.9988 87.318 90.3759 86.4689C89.6953 85.541 88.9939 84.6284 88.3149 83.6994C87.7548 82.933 87.2212 82.1471 86.6573 81.3836C86.572 81.2681 86.3875 81.1662 86.246 81.1623C85.4702 81.141 84.6935 81.1522 83.7897 81.1522C84.1199 81.6317 84.3878 82.0498 84.6843 82.4465C85.8012 83.9409 86.9444 85.4159 88.045 86.9222C88.9969 88.225 89.8996 89.5639 90.8339 90.8797C91.1819 91.37 91.5575 91.8406 91.9215 92.3195C92.0828 92.5316 92.1327 92.6939 91.9248 92.9557C91.3475 93.6828 90.824 94.4529 90.2359 95.266C89.4975 94.2702 88.8088 93.3532 88.1326 92.427C87.1724 91.1115 86.2221 89.7887 85.2663 88.47C84.1517 86.9321 83.0398 85.3922 81.9195 83.8585C80.5708 82.0124 79.2136 80.1726 77.8656 78.326C77.8221 78.2664 77.8389 78.1626 77.8154 78.0397C81.2389 78 84.6746 78 88.1611 78Z" fill="#3D3D3D"/>
<path d="M17 90.0527C17.6362 89.9471 18.2721 89.8197 18.9087 89.8158C22.2312 89.7955 25.5539 89.8042 28.8765 89.8113C29.1587 89.8119 29.4439 89.9182 29.7222 89.8995C30.2288 89.8654 30.2668 90.1529 30.2644 90.5117C30.2595 91.2311 30.2298 91.9524 30.2747 92.6692C30.304 93.1361 30.1771 93.3736 29.6822 93.5122C28.8963 93.7324 28.1383 94.0436 27.3648 94.3062C27.2554 94.3433 27.1252 94.3236 26.973 94.332C26.973 93.8985 26.9552 93.4961 26.9783 93.0958C26.9987 92.7439 26.8468 92.6436 26.4969 92.6457C24.5261 92.6571 22.5552 92.6512 20.5478 92.6512C20.5478 93.1261 20.5478 93.5901 20.5478 94.0983C22.2116 94.0983 23.8991 94.0983 25.6228 94.0983C25.6228 94.8853 25.6228 95.6302 25.6228 96.4438C24.7755 96.4438 23.9075 96.4438 23.0394 96.4438C22.5647 96.4438 22.0863 96.4078 21.6165 96.4539C21.1413 96.5005 20.9462 96.2801 20.8359 95.8941C20.7628 95.6383 20.6696 95.3878 20.5386 94.9945C20.5386 96.013 20.5386 96.8852 20.5386 97.8111C23.6776 97.8111 26.8112 97.8111 30.0047 97.8391C30.0826 97.8907 30.1062 97.9071 30.1351 97.9161C30.1351 98.8783 30.1351 99.8404 30.1351 100.843C29.9801 100.852 29.8235 100.867 29.6669 100.867C25.7268 100.869 21.7867 100.872 17.8467 100.861C17.5904 100.86 17.3345 100.754 17.0392 100.73C17 100.716 17 100.669 17.0138 100.573C17.0368 100.515 17.0462 100.506 17.0555 100.498C17.037 100.481 17.0185 100.464 17 100.447C17 97.1088 17 93.7705 17.0171 90.3734C17.0228 90.2858 17.0114 90.257 17 90.2282C17 90.1814 17 90.1346 17 90.0527ZM20.4262 94.8439C20.439 94.8609 20.4517 94.878 20.4644 94.895C20.4618 94.8712 20.4593 94.8474 20.4262 94.8439Z" fill="#3D3D3D"/>
<path d="M78.3354 123C78.2314 122.929 78.1856 122.807 78.1231 122.798C77.936 122.771 77.7424 122.788 77.4922 122.788C83.7571 114.724 89.9772 106.717 96.2398 98.6558C96.9136 99.5263 97.5238 100.301 98.1107 101.093C98.1733 101.178 98.1525 101.402 98.0813 101.493C96.6551 103.317 95.2043 105.122 93.7828 106.949C92.6769 108.37 91.6185 109.828 90.5129 111.249C89.213 112.921 87.8748 114.563 86.5721 116.232C85.4387 117.684 84.3307 119.156 83.213 120.621C82.6244 121.392 82.0392 122.165 81.4839 122.969C80.4721 123 79.429 123 78.3354 123Z" fill="#3D3D3D"/>
<path d="M182.983 99.7908C182.785 100.016 182.564 100.175 182.392 100.373C181.979 100.851 181.385 100.845 180.847 100.851C178.176 100.881 175.505 100.864 172.796 100.864C172.796 100.089 172.796 99.3178 172.796 98.5055C174.554 98.5055 176.306 98.5055 178.058 98.5055C178.542 98.5054 179.027 98.5136 179.511 98.5022C179.798 98.4954 179.997 98.4203 179.978 98.0584C179.96 97.7112 179.776 97.6993 179.495 97.6792C177.738 97.5537 175.977 97.4511 174.227 97.2576C173.356 97.1613 172.806 96.6912 172.678 95.6729C172.612 95.1486 172.708 94.6027 172.759 94.0689C172.833 93.2744 173.527 92.7853 174.411 92.7739C177.082 92.7394 179.753 92.7586 182.425 92.7685C182.585 92.7691 182.745 92.8712 182.944 92.895C182.983 93.5841 182.983 94.3043 182.948 95.0415C182.064 95.3425 181.215 95.6266 180.292 95.9352C180.292 95.579 180.328 95.352 180.278 95.1434C180.249 95.0185 180.087 94.829 179.982 94.8273C178.638 94.8061 177.292 94.8006 175.949 94.8337C175.814 94.837 175.634 95.1032 175.578 95.2774C175.552 95.3592 175.759 95.6064 175.879 95.6189C177.401 95.7774 178.93 95.8764 180.448 96.0575C181.139 96.1399 181.897 96.0756 182.477 96.5771C182.655 96.7313 182.815 96.9048 182.983 97.0694C182.983 97.9605 182.983 98.8516 182.983 99.7908Z" fill="#3D3D3D"/>
<path d="M108.468 78C108.546 78.5866 108.028 78.889 107.746 79.302C107.103 80.2434 106.381 81.1356 105.692 82.0479C104.921 83.0677 104.149 84.0866 103.38 85.1077C102.61 86.1308 101.842 87.1552 101.075 88.1808C100.501 88.9492 99.9303 89.7203 99.3203 90.541C98.8387 89.9417 98.4082 89.4066 97.9792 88.8704C97.9473 88.8305 97.9305 88.7796 97.9001 88.7384C97.2278 87.829 97.2465 87.8428 97.9617 86.9332C98.8693 85.7789 99.7326 84.5925 100.634 83.4333C101.275 82.6082 101.961 81.8153 102.601 80.9893C103.164 80.263 103.691 79.511 104.233 78.7698C104.407 78.5326 104.577 78.2935 104.713 78.0276C105.923 78 107.17 78 108.468 78Z" fill="#3D3D3D"/>
<path d="M106.711 84.2618C107.493 83.1952 108.251 82.1615 109.01 81.1281C109.7 80.1881 110.381 79.2416 111.089 78.3152C111.204 78.1652 111.436 78.0213 111.617 78.017C112.754 77.9899 113.891 78.0033 115.028 78.0033C115.057 78.0707 115.086 78.1382 115.115 78.2056C110.664 84.3068 106.212 90.4081 101.751 96.5231C106.029 102.346 110.327 108.196 114.669 114.105C114.478 114.121 114.345 114.142 114.213 114.142C111.005 114.144 107.798 114.141 104.59 114.148C104.28 114.148 104.088 114.076 103.884 113.796C102.687 112.155 101.441 110.549 100.229 108.918C99.2996 107.665 98.3887 106.398 97.4947 105.12C97.3964 104.98 97.3782 104.666 97.47 104.532C97.9553 103.822 98.4829 103.14 99.0099 102.459C99.075 102.375 99.2241 102.355 99.3662 102.291C100.452 103.811 101.523 105.33 102.615 106.834C103.348 107.843 104.113 108.83 104.856 109.831C105.107 110.17 105.323 110.534 105.583 110.866C105.67 110.979 105.84 111.09 105.975 111.094C106.768 111.115 107.561 111.105 108.454 111.105C107.885 110.314 107.376 109.606 106.868 108.898C105.802 107.415 104.75 105.923 103.669 104.45C102.322 102.615 100.946 100.799 99.5928 98.9672C99.0409 98.2204 98.4919 97.469 97.9967 96.6853C97.898 96.529 97.9728 96.1619 98.0993 95.9847C99.1007 94.5826 100.133 93.2026 101.158 91.8167C102.139 90.4892 103.124 89.1648 104.102 87.835C104.968 86.6578 105.826 85.4752 106.711 84.2618Z" fill="#3D3D3D"/>
<path d="M115.792 101.502C115.792 102.546 115.792 103.536 115.792 104.557C114.835 104.557 113.9 104.557 112.925 104.557C112.917 104.385 112.903 104.214 112.902 104.043C112.901 100.675 112.901 97.3065 112.902 93.9381C112.902 92.943 113.065 92.7773 114.038 92.7773C116.178 92.7774 118.321 92.7128 120.458 92.799C122.036 92.8626 123.056 93.6617 123.163 95.2748C123.241 96.4401 123.264 97.6226 123.155 98.7829C123.037 100.038 122.262 100.938 120.894 101.059C119.591 101.174 118.275 101.136 116.966 101.19C116.605 101.205 116.53 100.977 116.434 100.733C116.249 100.262 116.065 99.7903 115.792 99.327C115.792 100.034 115.792 100.742 115.792 101.502ZM119.344 98.5699C119.372 98.5608 119.399 98.5517 119.512 98.5269C120.17 98.4371 120.392 98.1913 120.395 97.5464C120.396 97.0868 120.407 96.6269 120.392 96.1677C120.371 95.4911 119.982 95.1204 119.312 95.1188C118.298 95.1165 117.284 95.1298 116.271 95.1108C115.991 95.1055 115.808 95.206 115.803 95.4558C115.783 96.4721 115.794 97.489 115.794 98.5381C117.018 98.5381 118.172 98.5381 119.344 98.5699Z" fill="#3D3D3D"/>
<path d="M44.295 103.623C44.295 100.287 44.2948 97.0043 44.295 93.7216C44.2951 92.9511 44.4819 92.7647 45.2541 92.7646C47.3998 92.7643 49.5464 92.7301 51.6906 92.7871C52.275 92.8026 52.8983 93.0055 53.4215 93.2779C54.2341 93.701 54.5345 94.5227 54.5828 95.3805C54.6416 96.4242 54.6286 97.4748 54.5887 98.5202C54.539 99.8253 53.696 100.911 52.2414 101.052C50.9196 101.179 49.5818 101.152 48.2509 101.161C48.1135 101.162 47.9167 100.972 47.847 100.824C47.6314 100.368 47.464 99.889 47.2092 99.429C47.2092 101.129 47.2092 102.829 47.2092 104.557C46.2306 104.557 45.2928 104.557 44.295 104.557C44.295 104.266 44.295 103.971 44.295 103.623ZM50.8612 98.5624C50.8894 98.5525 50.9175 98.5426 51.0284 98.5165C51.4183 98.5341 51.6517 98.2292 51.6747 97.9659C51.7393 97.2284 51.7427 96.477 51.6733 95.7401C51.6386 95.3726 51.3198 95.1097 50.8906 95.1084C49.7832 95.1052 48.6757 95.0986 47.5687 95.1194C47.4421 95.1218 47.2124 95.2868 47.2101 95.3809C47.1841 96.4179 47.1938 97.4558 47.1938 98.5303C48.4542 98.5303 49.6486 98.5303 50.8612 98.5624Z" fill="#3D3D3D"/>
<path d="M134.77 100.858C133.663 100.858 132.609 100.89 131.558 100.846C130.918 100.819 130.299 100.722 129.699 100.387C128.953 99.9718 128.549 99.3486 128.486 98.6495C128.371 97.3782 128.357 96.0829 128.481 94.8132C128.587 93.7324 129.998 92.7686 131.179 92.768C132.976 92.7671 134.774 92.7301 136.57 92.7809C137.934 92.8196 138.953 93.3856 139.372 94.6896C139.422 94.8448 139.45 95.0123 139.451 95.1742C139.458 96.2489 139.44 97.3239 139.459 98.3984C139.479 99.5807 138.393 100.632 137.191 100.747C136.407 100.823 135.614 100.823 134.77 100.858ZM135.726 98.3012C136.237 98.2944 136.498 98.0336 136.511 97.5708C136.527 96.9771 136.532 96.3821 136.508 95.7889C136.489 95.313 136.161 95.0281 135.651 95.0241C134.511 95.015 133.371 95.0118 132.231 95.0272C131.881 95.0319 131.541 95.1445 131.505 95.5422C131.449 96.1761 131.388 96.8137 131.404 97.4482C131.419 98.0755 131.573 98.2955 132.289 98.346C132.316 98.3349 132.344 98.3237 132.472 98.2957C133.493 98.3014 134.514 98.307 135.553 98.3432C135.581 98.3342 135.61 98.3252 135.726 98.3012Z" fill="#3D3D3D"/>
<path d="M158.892 100.862C157.156 100.862 155.473 100.872 153.791 100.858C152.796 100.85 151.902 100.601 151.211 99.8525C150.737 99.3394 150.583 98.7094 150.55 98.0974C150.497 97.088 150.524 96.0626 150.653 95.0594C150.86 93.4546 151.943 92.8573 153.462 92.7919C155.304 92.7126 157.152 92.7856 158.997 92.7682C160.044 92.7584 160.718 93.1617 160.829 94.2559C160.896 94.9182 160.806 95.5997 160.735 96.2677C160.648 97.0874 159.986 97.5596 159.096 97.5755C157.469 97.6046 155.84 97.5917 154.212 97.5694C154.069 97.5674 153.884 97.3921 153.797 97.2535C153.673 97.0545 153.621 96.8152 153.426 96.6187C153.476 97.0807 153.483 97.5514 153.586 98.0026C153.698 98.4926 154.136 98.6086 154.611 98.6089C156.456 98.6104 158.302 98.6096 160.147 98.6096C160.325 98.6096 160.504 98.6096 160.743 98.6096C160.743 99.2717 160.761 99.9137 160.726 100.553C160.72 100.662 160.493 100.837 160.357 100.848C159.889 100.885 159.417 100.862 158.892 100.862ZM157.5 95.7876L157.546 95.7993C157.546 95.7993 157.585 95.7653 157.673 95.7509C158.185 95.7236 158.046 95.3417 157.999 95.1063C157.97 94.956 157.712 94.7414 157.55 94.7358C156.559 94.7014 155.563 94.6701 154.575 94.7354C153.893 94.7805 153.514 94.8925 153.602 95.7572C154.892 95.7572 156.187 95.7572 157.5 95.7876Z" fill="#3D3D3D"/>
<path d="M62.1623 100.771C60.8576 100.568 60.0481 99.7996 59.9032 98.691C59.7345 97.4009 59.7584 96.0618 59.9185 94.7681C60.0572 93.647 61.402 92.7795 62.6444 92.7732C64.4203 92.7642 66.1977 92.7301 67.9718 92.7833C69.5757 92.8314 70.8874 93.7184 70.852 95.4951C70.8329 96.4516 70.844 97.4088 70.8497 98.3656C70.8571 99.598 69.7948 100.698 68.509 100.757C66.583 100.846 64.6522 100.842 62.7232 100.869C62.5527 100.871 62.3811 100.805 62.1623 100.771ZM67.1257 98.3157C67.6307 98.3014 67.8974 98.0455 67.9094 97.5801C67.9251 96.9673 67.9432 96.352 67.9025 95.7412C67.8715 95.2767 67.5378 95.0339 67.0469 95.0303C65.9096 95.0219 64.7721 95.0208 63.6349 95.0316C63.2736 95.0351 62.9466 95.1604 62.9102 95.552C62.8513 96.1862 62.7926 96.8247 62.8102 97.4596C62.8279 98.0951 62.9856 98.3082 63.693 98.357C63.7206 98.3461 63.7483 98.3353 63.8767 98.3075C64.8961 98.3131 65.9154 98.3188 66.9523 98.3551C66.9809 98.3467 67.0096 98.3384 67.1257 98.3157Z" fill="#3D3D3D"/>
<path d="M31.7661 100.853C31.5225 100.853 31.3295 100.853 31.0166 100.853C31.5928 99.9103 32.5458 99.4354 33.1976 98.6937C33.8693 97.9293 34.5229 97.1503 35.1823 96.38C34.0985 95.3916 32.7435 94.1558 31.3886 92.9201C31.4043 92.8779 31.42 92.8358 31.4357 92.7936C32.1836 92.7936 32.9401 92.8626 33.6771 92.7768C34.677 92.6604 35.3815 92.9946 35.9892 93.7354C36.3657 94.1943 36.8738 94.554 37.3987 95.0266C37.7412 94.7145 38.1387 94.3467 38.5428 93.9856C38.903 93.6637 39.2524 93.3265 39.6426 93.0417C39.8302 92.9048 40.0992 92.811 40.3345 92.8045C41.2885 92.7783 42.2437 92.7936 43.2962 92.911C41.9406 94.1237 40.5851 95.3365 39.1854 96.5887C40.6238 97.9278 42.0907 99.2934 43.5576 100.659C43.5205 100.724 43.4834 100.789 43.4462 100.853C42.966 100.853 42.4857 100.853 42.0054 100.853C41.3853 100.853 40.7647 100.865 40.1453 100.845C39.9921 100.84 39.8031 100.766 39.698 100.662C38.8793 99.8481 38.0771 99.0191 37.1638 98.0865C36.7075 98.5856 36.2944 99.0489 35.8676 99.5002C35.6279 99.7536 35.3177 99.9566 35.1232 100.236C34.6658 100.893 34.0055 100.891 33.3049 100.858C32.81 100.835 32.3129 100.853 31.7661 100.853Z" fill="#3D3D3D"/>
<path d="M79.4284 100.869C78.6301 100.869 77.8872 100.869 77.1033 100.869C77.1033 98.8123 77.1033 96.7787 77.1033 94.7705C77.0339 94.7255 77.0011 94.6866 76.9764 94.6908C76.2272 94.8179 75.7932 94.5665 75.6759 93.8095C75.6276 93.4983 75.4099 93.2138 75.3004 92.9071C75.2555 92.7817 75.293 92.6295 75.293 92.451C75.8854 92.451 76.4565 92.451 77.0729 92.451C77.0729 91.5526 77.0729 90.6919 77.0729 89.8032C78.1332 89.8032 79.1475 89.8032 80.2085 89.8032C80.2085 90.6695 80.2085 91.5305 80.2085 92.4335C81.0455 92.4335 81.8376 92.4335 82.6554 92.4335C82.6554 93.1945 82.6554 93.9128 82.6554 94.6739C81.8555 94.6739 81.0633 94.6739 80.2309 94.6739C80.2309 96.7494 80.2309 98.7829 80.2309 100.869C79.955 100.869 79.7193 100.869 79.4284 100.869Z" fill="#3D3D3D"/>
<path d="M169.671 96.2001C169.335 96.3355 169.203 96.2347 169.217 95.9245C169.229 95.6507 169.22 95.3759 169.22 95.0298C168.343 95.0298 167.474 95.0298 166.604 95.0298C166.371 95.0298 166.137 95.0465 165.906 95.0264C165.383 94.9809 165.226 95.2162 165.231 95.6915C165.25 97.4062 165.238 99.1212 165.238 100.869C164.288 100.869 163.348 100.869 162.359 100.869C162.352 100.744 162.336 100.598 162.336 100.451C162.334 98.5289 162.352 96.6068 162.328 94.6852C162.314 93.5301 163.349 92.7507 164.332 92.7577C166.679 92.7745 169.026 92.773 171.373 92.7542C171.808 92.7507 171.938 92.8833 171.916 93.2867C171.884 93.8513 171.932 94.4203 171.893 94.9842C171.881 95.1589 171.739 95.4105 171.586 95.4763C170.973 95.7395 170.332 95.9434 169.671 96.2001Z" fill="#3D3D3D"/>
<path d="M144.222 95.0291C144.062 95.2363 143.859 95.4413 143.856 95.649C143.83 97.3789 143.841 99.1093 143.841 100.869C142.882 100.869 141.942 100.869 140.96 100.869C140.952 100.733 140.936 100.586 140.936 100.439C140.934 98.5177 140.934 96.5968 140.935 94.6759C140.936 93.5659 141.762 92.7648 142.919 92.7631C145.266 92.7597 147.614 92.7705 149.962 92.7542C150.376 92.7513 150.549 92.8489 150.522 93.2716C150.488 93.8185 150.503 94.3691 150.518 94.9176C150.526 95.2182 150.477 95.3856 150.108 95.4923C149.47 95.677 148.869 95.9771 148.248 96.2186C148.139 96.2609 148.009 96.2535 147.842 96.2752C147.842 95.8585 147.842 95.472 147.842 95.0281C146.623 95.0281 145.447 95.0281 144.222 95.0291Z" fill="#3D3D3D"/>
<path d="M56.4435 100.869C56.0569 100.869 55.7254 100.869 55.3604 100.869C55.3604 96.9328 55.3604 93.0181 55.3604 89.0656C56.316 89.0656 57.3018 89.0656 58.3112 89.0656C58.3112 92.9785 58.3112 96.8932 58.3112 100.869C57.7066 100.869 57.1026 100.869 56.4435 100.869Z" fill="#3D3D3D"/>
<path d="M126.255 100.869C125.726 100.869 125.252 100.869 124.743 100.869C124.733 100.716 124.717 100.582 124.717 100.449C124.715 96.8524 124.724 93.2561 124.705 89.66C124.703 89.1956 124.839 89.0449 125.325 89.0678C126.091 89.1037 126.859 89.0773 127.656 89.0773C127.656 93.0023 127.656 96.9047 127.656 100.869C127.212 100.869 126.761 100.869 126.255 100.869Z" fill="#3D3D3D"/>
<path d="M71.5898 96.9664C71.5898 95.5379 71.5898 94.161 71.5898 92.7542C72.579 92.7542 73.5439 92.7542 74.5407 92.7542C74.5407 95.4454 74.5407 98.1424 74.5407 100.869C73.5836 100.869 72.6185 100.869 71.5898 100.869C71.5898 99.59 71.5898 98.3041 71.5898 96.9664Z" fill="#3D3D3D"/>
<path d="M74.1844 89.0656C74.3376 89.1638 74.5196 89.259 74.5239 89.3607C74.5507 89.9879 74.5373 90.6166 74.5373 91.2787C73.5576 91.2787 72.5923 91.2787 71.5898 91.2787C71.5898 90.5775 71.5898 89.855 71.5898 89.0656C72.4186 89.0656 73.2748 89.0656 74.1844 89.0656Z" fill="#3D3D3D"/>
</g>
<defs>
<clipPath id="clip0_230_5329">
<rect width="200" height="200" fill="white" transform="translate(0 0.289551)"/>
</clipPath>
</defs>
</svg>
