<svg width="200" height="201" viewBox="0 0 200 201" fill="none" xmlns="http://www.w3.org/2000/svg">
<g clip-path="url(#clip0_230_4245)">
<path d="M190 0.289551H10C4.47715 0.289551 0 4.7667 0 10.2896V190.29C0 195.812 4.47715 200.29 10 200.29H190C195.523 200.29 200 195.812 200 190.29V10.2896C200 4.7667 195.523 0.289551 190 0.289551Z" fill="#F5F5F5"/>
<path d="M166.251 82.7268V118.067C166.251 121.144 163.825 123.64 160.823 123.64H132.67C128.284 123.64 124.233 121.217 122.072 117.289C113.849 102.338 101.892 89.8636 87.5052 81.1898C83.1353 78.5553 80.3994 73.787 80.3994 68.5752V40.8748C80.3994 37.803 82.8417 35.2896 85.8266 35.2896H120.155C123.157 35.2896 125.582 37.7979 125.582 40.8748V77.1416H160.823C163.821 77.1416 166.251 79.6423 166.251 82.7268Z" fill="#44A6F1"/>
<path d="M80.397 128.718V157.912C80.397 161.986 83.7001 165.29 87.7745 165.29H119.291C123.366 165.29 126.669 161.986 126.669 157.912V140.016C126.669 127.921 113.941 111.189 107.753 104.177C92.5166 86.9072 77.2691 77.3734 47.304 77.3734H35.8059C45.8481 96.3455 71.4002 106.786 87.9352 107.41C69.308 107.643 44.4048 97.9766 34 78.8321C34.6503 105.72 53.2168 121.716 80.3973 123.645C96.652 124.799 112.469 124.332 118.004 132.532C120.802 136.677 120.531 140.399 120.531 145.476L120.521 157.912C120.521 158.591 119.97 159.142 119.291 159.142H87.7745C87.0955 159.142 86.5449 158.591 86.5449 157.912C86.5449 157.912 86.5449 142.673 86.5449 137.281C86.5449 129.397 80.397 128.718 80.397 128.718Z" fill="url(#paint0_linear_230_4245)"/>
</g>
<defs>
<linearGradient id="paint0_linear_230_4245" x1="80.3342" y1="77.3734" x2="80.3342" y2="167.102" gradientUnits="userSpaceOnUse">
<stop stop-color="#88C250"/>
<stop offset="0.1243" stop-color="#80BF64"/>
<stop offset="0.3767" stop-color="#6AB696"/>
<stop offset="0.4776" stop-color="#61B2AC"/>
<stop offset="1" stop-color="#44A6F1"/>
</linearGradient>
<clipPath id="clip0_230_4245">
<rect width="200" height="200" fill="white" transform="translate(0 0.289551)"/>
</clipPath>
</defs>
</svg>
