<svg width="200" height="201" viewBox="0 0 200 201" fill="none" xmlns="http://www.w3.org/2000/svg">
<g clip-path="url(#clip0_230_4231)">
<path d="M190 0.289551H10C4.47715 0.289551 0 4.7667 0 10.2896V190.29C0 195.812 4.47715 200.29 10 200.29H190C195.523 200.29 200 195.812 200 190.29V10.2896C200 4.7667 195.523 0.289551 190 0.289551Z" fill="#F5F5F5"/>
<rect x="33.7812" y="78" width="29.5589" height="29.5589" fill="#4F0000"/>
<rect x="19" y="92.8396" width="29.5589" height="29.5589" fill="#B80000"/>
<path d="M175.512 106.707C174.586 106.707 173.757 106.557 173.023 106.256C172.29 105.956 171.701 105.511 171.256 104.922C170.823 104.332 170.594 103.623 170.57 102.793H173.853C173.901 103.262 174.063 103.623 174.34 103.875C174.616 104.116 174.977 104.236 175.422 104.236C175.879 104.236 176.24 104.134 176.504 103.93C176.769 103.713 176.901 103.419 176.901 103.046C176.901 102.733 176.793 102.475 176.576 102.27C176.372 102.066 176.113 101.898 175.801 101.765C175.5 101.633 175.067 101.483 174.502 101.314C173.685 101.062 173.017 100.809 172.5 100.557C171.983 100.304 171.538 99.9316 171.165 99.4386C170.793 98.9456 170.606 98.3024 170.606 97.5088C170.606 96.3304 171.033 95.4106 171.887 94.7493C172.741 94.0759 173.853 93.7393 175.224 93.7393C176.618 93.7393 177.743 94.0759 178.596 94.7493C179.45 95.4106 179.907 96.3364 179.967 97.5268H176.63C176.606 97.118 176.456 96.7994 176.179 96.5709C175.903 96.3304 175.548 96.2102 175.115 96.2102C174.743 96.2102 174.442 96.3124 174.214 96.5168C173.985 96.7092 173.871 96.9917 173.871 97.3645C173.871 97.7733 174.063 98.0919 174.448 98.3204C174.833 98.5488 175.434 98.7953 176.252 99.0599C177.069 99.3364 177.731 99.6009 178.236 99.8534C178.753 100.106 179.198 100.473 179.57 100.954C179.943 101.435 180.129 102.054 180.129 102.811C180.129 103.533 179.943 104.188 179.57 104.777C179.21 105.366 178.68 105.835 177.983 106.184C177.286 106.533 176.462 106.707 175.512 106.707Z" fill="#B80000"/>
<path d="M169.383 93.9196V96.3905H166.029V106.581H162.945V96.3905H159.59V93.9196H169.383Z" fill="#B80000"/>
<path d="M158.655 93.9196V96.3905H153.496V99.0598H157.356V101.459H153.496V106.581H150.412V93.9196H158.655Z" fill="#B80000"/>
<path d="M145.152 104.344H140.426L139.669 106.581H136.44L141.022 93.9196H144.593L149.174 106.581H145.909L145.152 104.344ZM144.358 101.964L142.789 97.3284L141.238 101.964L140.426 104.344H145.152L144.358 101.964Z" fill="#B80000"/>
<path d="M131.806 106.581L129.172 101.801H128.433V106.581H125.349V93.9196H130.525C131.523 93.9196 132.371 94.0939 133.068 94.4426C133.777 94.7913 134.306 95.2723 134.655 95.8855C135.004 96.4867 135.178 97.16 135.178 97.9055C135.178 98.7472 134.938 99.4987 134.457 100.16C133.988 100.821 133.29 101.29 132.365 101.567L135.286 106.581H131.806ZM128.433 99.6189H130.345C130.91 99.6189 131.331 99.4806 131.607 99.2041C131.896 98.9275 132.04 98.5368 132.04 98.0318C132.04 97.5508 131.896 97.172 131.607 96.8955C131.331 96.6189 130.91 96.4807 130.345 96.4807H128.433V99.6189Z" fill="#B80000"/>
<path d="M111.087 100.232C111.087 98.9816 111.357 97.8694 111.899 96.8955C112.44 95.9095 113.191 95.146 114.153 94.6049C115.127 94.0518 116.227 93.7753 117.454 93.7753C118.957 93.7753 120.243 94.1721 121.313 94.9656C122.383 95.7592 123.099 96.8414 123.46 98.2121H120.069C119.816 97.6831 119.456 97.2803 118.987 97.0037C118.53 96.7272 118.007 96.5889 117.418 96.5889C116.468 96.5889 115.698 96.9195 115.109 97.5809C114.52 98.2422 114.225 99.1259 114.225 100.232C114.225 101.338 114.52 102.222 115.109 102.883C115.698 103.545 116.468 103.875 117.418 103.875C118.007 103.875 118.53 103.737 118.987 103.461C119.456 103.184 119.816 102.781 120.069 102.252H123.46C123.099 103.623 122.383 104.705 121.313 105.499C120.243 106.28 118.957 106.671 117.454 106.671C116.227 106.671 115.127 106.4 114.153 105.859C113.191 105.306 112.44 104.543 111.899 103.569C111.357 102.595 111.087 101.483 111.087 100.232Z" fill="#B80000"/>
<path d="M106.472 106.581L103.893 102.703L101.62 106.581H98.1214L102.18 100.142L98.0312 93.9196H101.62L104.163 97.7432L106.4 93.9196H109.899L105.877 100.304L110.061 106.581H106.472Z" fill="#4F0000"/>
<path d="M90.5266 106.707C89.3362 106.707 88.242 106.431 87.2441 105.877C86.2581 105.324 85.4705 104.555 84.8814 103.569C84.3042 102.571 84.0156 101.453 84.0156 100.214C84.0156 98.9757 84.3042 97.8635 84.8814 96.8775C85.4705 95.8915 86.2581 95.122 87.2441 94.5689C88.242 94.0158 89.3362 93.7393 90.5266 93.7393C91.717 93.7393 92.8051 94.0158 93.7911 94.5689C94.7891 95.122 95.5707 95.8915 96.1358 96.8775C96.7129 97.8635 97.0015 98.9757 97.0015 100.214C97.0015 101.453 96.7129 102.571 96.1358 103.569C95.5586 104.555 94.7771 105.324 93.7911 105.877C92.8051 106.431 91.717 106.707 90.5266 106.707ZM90.5266 103.893C91.5366 103.893 92.3422 103.557 92.9434 102.883C93.5566 102.21 93.8633 101.32 93.8633 100.214C93.8633 99.0959 93.5566 98.2062 92.9434 97.5448C92.3422 96.8715 91.5366 96.5348 90.5266 96.5348C89.5046 96.5348 88.6869 96.8655 88.0737 97.5268C87.4725 98.1881 87.1719 99.0839 87.1719 100.214C87.1719 101.332 87.4725 102.228 88.0737 102.902C88.6869 103.563 89.5046 103.893 90.5266 103.893Z" fill="#4F0000"/>
<path d="M80.3147 100.088C81.0482 100.244 81.6373 100.611 82.0822 101.188C82.5271 101.753 82.7495 102.402 82.7495 103.136C82.7495 104.194 82.3768 105.036 81.6313 105.661C80.8979 106.274 79.8698 106.581 78.5472 106.581H72.6494V93.9196H78.3488C79.6353 93.9196 80.6393 94.2141 81.3608 94.8033C82.0942 95.3925 82.461 96.1921 82.461 97.2021C82.461 97.9476 82.2626 98.5668 81.8658 99.0598C81.481 99.5528 80.964 99.8955 80.3147 100.088ZM75.7336 99.0418H77.7536C78.2586 99.0418 78.6434 98.9335 78.9079 98.7171C79.1844 98.4887 79.3227 98.158 79.3227 97.7251C79.3227 97.2923 79.1844 96.9616 78.9079 96.7332C78.6434 96.5047 78.2586 96.3905 77.7536 96.3905H75.7336V99.0418ZM78.0061 104.092C78.5231 104.092 78.9199 103.978 79.1965 103.749C79.485 103.509 79.6293 103.166 79.6293 102.721C79.6293 102.276 79.479 101.928 79.1784 101.675C78.8899 101.423 78.4871 101.296 77.97 101.296H75.7336V104.092H78.0061Z" fill="#4F0000"/>
</g>
<defs>
<clipPath id="clip0_230_4231">
<rect width="200" height="200" fill="white" transform="translate(0 0.289551)"/>
</clipPath>
</defs>
</svg>
