<svg width="200" height="50" viewBox="0 0 200 50" fill="none" xmlns="http://www.w3.org/2000/svg">
<g clip-path="url(#clip0_1299_786)">
<path d="M35.8825 23.1992H10.8691V37.1589H35.8825V23.1992Z" fill="#000B6D"/>
</g>
<path d="M48.9787 23.2506C49.0002 22.8611 49.0152 22.4697 49.0152 22.0751C49.0152 20.3388 48.7962 18.6506 48.3955 17.0264H0.619744C0.218664 18.6506 0 20.3388 0 22.0751C0 22.4697 0.0149611 22.8611 0.03654 23.2506H48.9787Z" fill="#5F6FFF"/>
<path d="M6.24219 37.1611C8.93783 39.9409 12.3654 42.1028 16.247 43.3856H32.7641C36.6454 42.1028 40.0733 39.9409 42.769 37.1611H6.24219Z" fill="#5F6FFF"/>
<path d="M18.9044 2.03613C19.9451 2.13896 23.0226 2.58533 26.2298 4.38755L24.8516 9.99906L18.9044 2.03613ZM25.299 10.5985L29.304 15.9613L32.4543 10.4468C30.8781 7.7688 28.8092 5.94187 26.7497 4.69177L25.299 10.5985ZM24.8358 10.9216H17.5861C18.2257 14.0318 19.5392 16.2283 19.5392 16.2283H28.7991L24.8358 10.9216ZM24.4358 10.3859L18.396 2.29864C17.0958 5.11051 17.0679 7.98349 17.4851 10.3859H24.4358Z" fill="white"/>
<path d="M41.2803 1.12183C38.5262 0.397278 36.0162 0.710268 35.6735 1.82061C35.4773 2.45722 36.0386 3.21738 37.0704 3.8872L30.0195 16.2291H41.3841L43.2557 5.5215C44.5272 5.458 45.4487 5.0847 45.6464 4.4441C45.9894 3.33376 44.0343 1.84639 41.2803 1.12183ZM42.5969 5.91447C42.5905 5.91447 42.5845 5.9142 42.5779 5.91367C39.5603 5.67587 37.4766 4.50335 37.3894 4.4534C37.2873 4.39521 37.2557 4.2714 37.3187 4.17734C37.382 4.08276 37.5158 4.05326 37.6179 4.11198C37.6383 4.12341 39.7056 5.2845 42.6147 5.5138C42.7344 5.5231 42.8233 5.62061 42.8129 5.73087C42.8035 5.83556 42.7085 5.91447 42.5969 5.91447Z" fill="#000B6D"/>
<path d="M6.24326 37.1611H42.7697C46.3878 33.4302 48.6818 28.5847 48.9779 23.25H0.0351562C0.331219 28.5847 2.6252 33.4302 6.24326 37.1611ZM22.8774 28.701V24.8936H26.1356V28.701H30.2586V31.7098H26.1356V35.5175H22.8774V31.7098H18.7544V28.701H22.8774Z" fill="#E0E3FF"/>
<path d="M13.6349 2.71515C9.89771 0.603132 6.30727 0.108139 5.16992 0L12.0418 9.20134L13.6349 2.71515Z" fill="#E0E3FF"/>
<path d="M4.66009 0.262695C3.14784 3.50526 3.12022 6.82168 3.60589 9.58759H11.624L4.66009 0.262695Z" fill="#E0E3FF"/>
<path d="M16.7068 4.92537C15.7283 4.03556 15.1738 3.63621 14.1539 3.01953L12.4883 9.80037L17.1755 16.0764C17.2103 16.1229 17.2215 16.1758 17.2215 16.2284H18.6742C18.6742 16.2284 15.5813 11.5986 16.7068 4.92537Z" fill="#E0E3FF"/>
<path d="M3.70898 10.123C4.4372 13.6991 5.94916 16.2282 5.94916 16.2282H16.585L12.0255 10.123H3.70898Z" fill="#E0E3FF"/>
<path d="M47.627 18.7803H55.131V22.9983H47.627V18.7803Z" fill="#5F6FFF"/>
<path d="M198.742 14.945C198.685 14.9976 198.521 15.0239 198.251 15.0239C198.023 15.0239 197.824 14.9976 197.653 14.945L196.265 12.3228C195.696 11.4947 194.92 10.9361 193.938 10.647C192.97 10.3446 192.372 10.016 192.145 9.66116C191.931 9.05653 191.518 8.12988 190.906 6.8812V6.42773H191.739C192.835 6.74319 193.724 7.03893 194.408 7.31495C195.532 7.77499 196.286 8.30733 196.671 8.91195C196.884 9.24055 197.212 10.0818 197.653 11.4356C198.066 12.7106 198.414 13.5978 198.699 14.0973C198.728 14.3338 198.742 14.6164 198.742 14.945ZM200.001 19.3811H191.312V17.0152H200.001V19.3811ZM197.567 38.8605L193.981 37.027V21.8062H197.567V38.8605Z" fill="#5F6FFF"/>
<path d="M191.844 19.3806H168.893V17.0146H191.844V19.3806ZM187.254 28.0359C187.254 24.8813 185.638 23.3041 182.407 23.3041C180.016 23.3041 178.016 24.4607 176.408 26.7741C174.984 28.8245 174.273 31.0064 174.273 33.3198V39.0571L170.771 37.3616V22.5351H174.444V24.8813L176.344 23.5604C178.023 22.3905 179.795 21.8056 181.66 21.8056C184.194 21.8056 186.293 22.7126 187.958 24.5264C189.524 26.2352 190.307 28.2791 190.307 30.6581C190.307 33.6418 188.94 36.5072 186.208 39.2543L182.087 36.8687C183.368 35.6988 184.457 34.621 185.354 33.6352C186.62 32.242 187.254 30.3755 187.254 28.0359Z" fill="#5F6FFF"/>
<path d="M169.168 19.3806H154.949V22.5351C155.006 22.5351 155.063 22.5614 155.12 22.614C155.177 22.6666 155.227 22.6929 155.269 22.6929C155.155 22.6929 155.091 22.6863 155.077 22.6731C155.077 22.6074 156.138 22.3971 158.258 22.0422C159.041 21.9108 159.817 21.8451 160.585 21.8451C163.788 21.8451 165.845 22.6731 166.756 24.3293C167.368 25.4334 167.674 27.6613 167.674 31.013V38.6037C167.375 38.4985 166.243 38.0713 164.279 37.3221C164.279 36.9015 164.187 36.6321 164.002 36.5138C163.247 36.9212 162.628 37.2301 162.144 37.4404C160.607 38.1108 158.821 38.4459 156.785 38.4459C153.981 38.4459 151.818 37.631 150.295 36.0012C149.555 35.2125 149.185 34.3319 149.185 33.3592C149.185 32.2683 149.768 31.1839 150.935 30.1061C153.198 28.0162 156.009 26.9712 159.369 26.9712C161.404 26.9712 163.041 27.405 164.279 28.2725V26.4586C163.653 25.7225 163.041 25.2296 162.443 24.9799C161.859 24.7302 161.055 24.6185 160.03 24.6447C157.739 24.6842 155.639 25.0719 153.732 25.808C152.878 26.1366 152.045 26.4323 151.234 26.6952V25.2362C151.419 25.0916 151.69 24.8748 152.045 24.5856C152.102 24.5199 152.138 24.4804 152.152 24.4673V19.3806H147.775V17.0146H169.168V19.3806ZM164.279 31.8608C164.279 31.2825 163.532 30.7633 162.037 30.3032C160.799 29.9221 159.767 29.7315 158.942 29.7315C155.938 29.7315 153.533 30.7304 151.725 32.7283C150.999 33.5301 150.636 34.1873 150.636 34.6999C150.935 35.6594 152.109 36.1392 154.159 36.1392C156.807 36.1392 159.226 35.528 161.418 34.3056C163.325 33.2409 164.279 32.426 164.279 31.8608Z" fill="#5F6FFF"/>
<path d="M147.607 17.0146L147.564 19.3806H145.386V23.1463C145.13 23.6195 144.532 24.6185 143.593 26.1432L136.014 38.4459C134.747 38.4459 133.089 37.5193 131.039 35.666C128.79 33.6418 127.666 31.3942 127.666 28.9231C127.666 27.6613 128.107 26.4849 128.989 25.3939C129.388 24.8945 129.587 24.5199 129.587 24.2701C129.587 23.8101 129.167 23.5801 128.327 23.5801C127.701 23.5801 127.096 23.8167 126.513 24.2899C126.299 24.4607 125.837 24.9273 125.125 25.6897L122.371 23.3829C123.31 22.6469 124.228 22.1934 125.125 22.0225C125.566 21.9305 126.136 21.8845 126.833 21.8845C130.69 21.8451 132.619 23.7444 132.619 27.5824C132.619 28.095 132.555 28.864 132.427 29.8892C132.313 30.9144 132.256 31.6833 132.256 32.196C132.256 34.2727 132.654 35.4031 133.452 35.5871C133.893 35.5871 134.412 35.0876 135.01 34.0887L141.522 23.2252V19.3806H120.77V17.0146H147.607Z" fill="#5F6FFF"/>
<path d="M120.003 14.945C119.947 14.9976 119.783 15.0239 119.512 15.0239C119.285 15.0239 119.085 14.9976 118.915 14.945L117.527 12.3228C116.958 11.4947 116.182 10.9361 115.2 10.647C114.232 10.3446 113.634 10.016 113.406 9.66116C113.193 9.05653 112.78 8.12988 112.168 6.8812V6.42773H113.001C114.097 6.74319 114.986 7.03893 115.669 7.31495C116.794 7.77499 117.548 8.30733 117.933 8.91195C118.146 9.24055 118.473 10.0818 118.915 11.4356C119.327 12.7106 119.676 13.5978 119.961 14.0973C119.989 14.3338 120.003 14.6164 120.003 14.945ZM121.263 19.3811H112.574V17.0152H121.263V19.3811ZM118.829 38.8605L115.242 37.027V21.8062H118.829V38.8605Z" fill="#5F6FFF"/>
<path d="M110.777 14.945C110.692 14.9976 110.528 15.0239 110.286 15.0239C110.072 15.0239 109.852 14.9976 109.624 14.945C108.5 12.9077 107.845 11.7773 107.66 11.5539C107.347 11.1596 106.5 10.785 105.119 10.4301C104.692 10.3249 104.358 10.0686 104.116 9.66116C104.002 9.29313 103.817 8.75422 103.561 8.04445C103.361 7.63698 103.141 7.24923 102.899 6.8812V6.42773H103.774C104.956 6.75633 105.852 7.05207 106.464 7.31495C107.518 7.76185 108.258 8.3139 108.685 8.9711C108.912 9.32599 109.24 10.1606 109.667 11.475C109.852 12.0797 110.186 12.9537 110.67 14.0973C110.741 14.4916 110.777 14.7742 110.777 14.945ZM113.787 19.3811H100.935V17.0152H113.787V19.3811ZM110.862 45.9977C110.862 47.299 109.93 48.4162 108.066 49.3495C107.197 49.7832 106.258 50.0001 105.247 50.0001C104.08 50.0001 102.899 49.6321 101.703 48.896C100.508 48.1599 99.682 47.299 99.2266 46.3132L102.536 43.9473C102.806 47.2859 103.817 48.9551 105.568 48.9551C106.578 48.9551 107.083 48.4031 107.083 47.299V21.8062H110.862V45.9977Z" fill="#5F6FFF"/>
<path d="M102.43 19.3806H79.4785V17.0146H102.43V19.3806ZM97.8396 28.0359C97.8396 24.8813 96.2241 23.3041 92.9932 23.3041C90.6019 23.3041 88.6021 24.4607 86.9938 26.7741C85.5704 28.8245 84.8588 31.0064 84.8588 33.3198V39.0571L81.3573 37.3616V22.5351H85.0296V24.8813L86.9297 23.5604C88.6093 22.3905 90.3813 21.8056 92.2459 21.8056C94.7795 21.8056 96.8789 22.7126 98.5442 24.5264C100.11 26.2352 100.893 28.2791 100.893 30.6581C100.893 33.6418 99.5263 36.5072 96.7935 39.2543L92.6729 36.8687C93.9539 35.6988 95.0428 34.621 95.9395 33.6352C97.2063 32.242 97.8396 30.3755 97.8396 28.0359Z" fill="#5F6FFF"/>
<path d="M79.7561 19.3806H65.5369V22.5351C65.5939 22.5351 65.6508 22.5614 65.7077 22.614C65.7647 22.6666 65.8145 22.6929 65.8572 22.6929C65.7433 22.6929 65.6793 22.6863 65.665 22.6731C65.665 22.6074 66.7254 22.3971 68.8462 22.0422C69.629 21.9108 70.4048 21.8451 71.1734 21.8451C74.3759 21.8451 76.4326 22.6731 77.3436 24.3293C77.9556 25.4334 78.2616 27.6613 78.2616 31.013V38.6037C77.9627 38.4985 76.8312 38.0713 74.8669 37.3221C74.8669 36.9015 74.7744 36.6321 74.5894 36.5138C73.835 36.9212 73.2159 37.2301 72.7319 37.4404C71.1947 38.1108 69.4084 38.4459 67.373 38.4459C64.5691 38.4459 62.4056 37.631 60.8826 36.0012C60.1425 35.2125 59.7724 34.3319 59.7724 33.3592C59.7724 32.2683 60.356 31.1839 61.5231 30.1061C63.7862 28.0162 66.5973 26.9712 69.9564 26.9712C71.9918 26.9712 73.6286 27.405 74.8669 28.2725V26.4586C74.2407 25.7225 73.6286 25.2296 73.0308 24.9799C72.4473 24.7302 71.6431 24.6185 70.6183 24.6447C68.3267 24.6842 66.2273 25.0719 64.32 25.808C63.466 26.1366 62.6333 26.4323 61.822 26.6952V25.2362C62.007 25.0916 62.2775 24.8748 62.6333 24.5856C62.6902 24.5199 62.7258 24.4804 62.7401 24.4673V19.3806H58.3633V17.0146H79.7561V19.3806ZM74.8669 31.8608C74.8669 31.2825 74.1197 30.7633 72.6252 30.3032C71.3869 29.9221 70.3549 29.7315 69.5294 29.7315C66.5262 29.7315 64.1207 30.7304 62.3131 32.7283C61.5872 33.5301 61.2242 34.1873 61.2242 34.6999C61.5231 35.6594 62.6974 36.1392 64.747 36.1392C67.3944 36.1392 69.8141 35.528 72.006 34.3056C73.9133 33.2409 74.8669 32.426 74.8669 31.8608Z" fill="#5F6FFF"/>
<path d="M59.1115 19.3806H56.7843V26.8529C55.9445 26.3929 54.7347 25.9986 53.1548 25.67C51.6745 25.3545 50.3935 25.1968 49.3118 25.1968C46.707 25.1968 44.5222 25.624 42.7573 26.4783C41.7609 26.9647 41.2628 27.6021 41.2628 28.3908C41.2628 29.4423 41.8606 29.9681 43.0562 29.9681C43.7821 29.9681 44.7286 29.7709 45.8957 29.3766C46.6501 29.1268 47.618 28.8114 48.7994 28.4302C49.2975 28.2725 50.18 28.1936 51.4468 28.1936C53.9092 28.1936 55.7453 28.8968 56.9551 30.3032C57.5387 30.9736 57.8305 31.7622 57.8305 32.6691C57.8305 34.759 56.4071 36.402 53.5604 37.5981C52.3791 38.0976 51.2546 38.3802 50.1871 38.4459C51.2119 39.3923 52.1869 39.8655 53.1121 39.8655C53.411 39.8655 53.7312 39.8261 54.0728 39.7472L56.2292 43.0003C55.788 43.3552 54.8841 43.5327 53.5177 43.5327C52.4075 43.5327 51.4681 43.1843 50.6995 42.4877C50.2867 42.1065 49.7032 41.3113 48.9488 40.1021C48.3083 39.0637 47.7745 38.5379 47.3475 38.5248C44.7144 38.4591 42.6861 38.0188 41.2628 37.2038C40.366 36.6912 39.9177 35.988 39.9177 35.0942C39.9177 33.9901 40.6294 33.4381 42.0527 33.4381C42.5793 33.4381 43.6753 33.8192 45.3406 34.5816C47.0202 35.3308 48.4008 35.7054 49.4826 35.7054C51.646 35.7054 53.6743 35.2322 55.5674 34.2859C56.4925 33.8258 56.9551 33.2606 56.9551 32.5903C56.9551 31.5913 56.1011 31.0919 54.3931 31.0919C53.8665 31.0919 52.1656 31.4468 49.2904 32.1565C47.5966 32.5771 46.5576 32.7874 46.1733 32.7874C43.9102 32.7874 42.0456 31.8016 40.5795 29.83C39.8679 28.8837 39.512 27.865 39.512 26.7741C39.4978 24.5527 41.1418 23.0543 44.4439 22.2788C45.7961 21.9634 47.07 21.8056 48.2656 21.8056C49.632 21.8056 51.5678 22.1145 54.0728 22.7323V19.3806H37.0781V17.0146H59.1115V19.3806Z" fill="#5F6FFF"/>
<defs>
<clipPath id="clip0_1299_786">
<rect width="25.0134" height="13.9597" fill="white" transform="translate(10.8691 23.1992)"/>
</clipPath>
</defs>
</svg>
