<svg width="50" height="44" viewBox="0 0 50 44" fill="none" xmlns="http://www.w3.org/2000/svg">
<g clip-path="url(#clip0_1301_824)">
<path d="M35.8825 23.1992H10.8691V37.1589H35.8825V23.1992Z" fill="#000B6D"/>
</g>
<path d="M48.9787 23.2506C49.0002 22.8611 49.0152 22.4697 49.0152 22.0751C49.0152 20.3388 48.7962 18.6506 48.3955 17.0264H0.619744C0.218664 18.6506 0 20.3388 0 22.0751C0 22.4697 0.0149611 22.8611 0.03654 23.2506H48.9787Z" fill="#5F6FFF"/>
<path d="M6.24219 37.1611C8.93783 39.9409 12.3654 42.1028 16.247 43.3856H32.7641C36.6454 42.1028 40.0733 39.9409 42.769 37.1611H6.24219Z" fill="#5F6FFF"/>
<path d="M18.9044 2.03613C19.9451 2.13896 23.0226 2.58533 26.2298 4.38755L24.8516 9.99906L18.9044 2.03613ZM25.299 10.5985L29.304 15.9613L32.4543 10.4468C30.8781 7.7688 28.8092 5.94187 26.7497 4.69177L25.299 10.5985ZM24.8358 10.9216H17.5861C18.2257 14.0318 19.5392 16.2283 19.5392 16.2283H28.7991L24.8358 10.9216ZM24.4358 10.3859L18.396 2.29864C17.0958 5.11051 17.0679 7.98349 17.4851 10.3859H24.4358Z" fill="white"/>
<path d="M41.2803 1.12183C38.5262 0.397278 36.0162 0.710268 35.6735 1.82061C35.4773 2.45722 36.0386 3.21738 37.0704 3.8872L30.0195 16.2291H41.3841L43.2557 5.5215C44.5272 5.458 45.4487 5.0847 45.6464 4.4441C45.9894 3.33376 44.0343 1.84639 41.2803 1.12183ZM42.5969 5.91447C42.5905 5.91447 42.5845 5.9142 42.5779 5.91367C39.5603 5.67587 37.4766 4.50335 37.3894 4.4534C37.2873 4.39521 37.2557 4.2714 37.3187 4.17734C37.382 4.08276 37.5158 4.05326 37.6179 4.11198C37.6383 4.12341 39.7056 5.2845 42.6147 5.5138C42.7344 5.5231 42.8233 5.62061 42.8129 5.73087C42.8035 5.83556 42.7085 5.91447 42.5969 5.91447Z" fill="#000B6D"/>
<path d="M6.24326 37.1611H42.7697C46.3878 33.4302 48.6818 28.5847 48.9779 23.25H0.0351562C0.331219 28.5847 2.6252 33.4302 6.24326 37.1611ZM22.8774 28.701V24.8936H26.1356V28.701H30.2586V31.7098H26.1356V35.5175H22.8774V31.7098H18.7544V28.701H22.8774Z" fill="#E0E3FF"/>
<path d="M13.6349 2.71515C9.89771 0.603132 6.30727 0.108139 5.16992 0L12.0418 9.20134L13.6349 2.71515Z" fill="#E0E3FF"/>
<path d="M4.66009 0.262695C3.14784 3.50526 3.12022 6.82168 3.60589 9.58759H11.624L4.66009 0.262695Z" fill="#E0E3FF"/>
<path d="M16.7068 4.92537C15.7283 4.03556 15.1738 3.63621 14.1539 3.01953L12.4883 9.80037L17.1755 16.0764C17.2103 16.1229 17.2215 16.1758 17.2215 16.2284H18.6742C18.6742 16.2284 15.5813 11.5986 16.7068 4.92537Z" fill="#E0E3FF"/>
<path d="M3.70898 10.123C4.4372 13.6991 5.94916 16.2282 5.94916 16.2282H16.585L12.0255 10.123H3.70898Z" fill="#E0E3FF"/>
<defs>
<clipPath id="clip0_1301_824">
<rect width="25.0134" height="13.9597" fill="white" transform="translate(10.8691 23.1992)"/>
</clipPath>
</defs>
</svg>
